<?xml version="1.0" encoding="UTF-8" standalone="no"?>
<svg
   data-name="Layer 1"
   width="372.19333"
   height="664.46399"
   viewBox="0 0 372.19333 664.46398"
   version="1.1"
   id="svg26"
   sodipodi:docname="undraw_unlock_re_a558.svg"
   xmlns:inkscape="http://www.inkscape.org/namespaces/inkscape"
   xmlns:sodipodi="http://sodipodi.sourceforge.net/DTD/sodipodi-0.dtd"
   xmlns="http://www.w3.org/2000/svg"
   xmlns:svg="http://www.w3.org/2000/svg">
  <defs
     id="defs26" />
  <sodipodi:namedview
     id="namedview26"
     pagecolor="#ffffff"
     bordercolor="#000000"
     borderopacity="0.25"
     inkscape:showpageshadow="2"
     inkscape:pageopacity="0.0"
     inkscape:pagecheckerboard="0"
     inkscape:deskcolor="#d1d1d1" />
  <rect
     x="24.313662"
     width="326"
     height="594"
     rx="58.728352"
     fill="#3f3d56"
     id="rect1"
     y="0" />
  <path
     d="m 344.81412,58.73233 v 476.54 a 53.29169,53.29169 0 0 1 -53.23,53.23 H 83.044122 a 53.29169,53.29169 0 0 1 -53.23,-53.23 v -476.54 a 53.29173,53.29173 0 0 1 53.23,-53.23 h 27.269998 v 9.42 a 16.08093,16.08093 0 0 0 16.08,16.08 c 35.30487,10.66486 76.7467,9.00025 121.84,0 a 16.0809,16.0809 0 0 0 16.08,-16.08 v -9.42 h 27.27 a 53.29174,53.29174 0 0 1 53.23,53.23 z"
     fill="#ffffff"
     id="path1" />
  <path
     d="m 22.813652,120.49999 a 4.00459,4.00459 0 0 1 -4,-4 v -8 a 4,4 0 1 1 8,0 v 8 a 4.00458,4.00458 0 0 1 -4,4 z"
     fill="#3f3d56"
     id="path2" />
  <path
     d="m 22.813662,161.52149 a 4.00458,4.00458 0 0 1 -4,-4 v -22.02148 a 4,4 0 1 1 8,0 v 22.02148 a 4.00458,4.00458 0 0 1 -4,4 z"
     fill="#3f3d56"
     id="path3" />
  <path
     d="m 22.813662,194.49999 a 4.00458,4.00458 0 0 1 -4,-4 v -22.02147 a 4,4 0 0 1 8,0 v 22.02147 a 4.00459,4.00459 0 0 1 -4,4 z"
     fill="#3f3d56"
     id="path4" />
  <path
     d="m 350.81506,114.77199 a 3.99675,3.99675 0 0 0 -4,3.99 v 53.74 a 4,4 0 0 0 8,0 v -53.74 a 4.00322,4.00322 0 0 0 -4,-3.99 z"
     fill="#3f3d56"
     id="path5" />
  <path
     d="m 98.399552,29.07305 h -27 a 5,5 0 0 1 0,-10 h 27 a 5,5 0 0 1 0,10 z"
     fill="#e6e6e6"
     id="path6" />
  <path
     d="m 255.2727,529.72745 c -7.52435,0.47107 -11.6828,-8.87732 -5.99017,-14.3258 0.20843,-0.82825 0.358,-1.4231 0.56634,-2.25147 q -0.11178,-0.27063 -0.225,-0.54052 c -7.60931,-18.14429 -23.01678,-7.9582 -40.94256,0.1521 -14.78485,6.6892 -29.68671,15.404 -17.32129,49.33618 2.59741,7.12768 -0.51764,15.19629 1.15271,22.583 a 263.25839,263.25839 0 0 1 -23.94761,-109.33959 254.10063,254.10063 0 0 1 1.57611,-28.34668 q 1.30572,-11.57393 3.62286,-22.983 a 267.54547,267.54547 0 0 1 35.9173,-89.193 q -3.29562,0.0443 -6.60223,0.0714 -5.94984,9.71466 -11.08942,19.89075 a 100.252,100.252 0 0 0 0.38507,-19.849 c -26.7309,-0.01 -53.44208,-0.8645 -77.05841,-2.56482 0.89581,72.37872 27.61322,87.47192 60.3764,52.80652 0.91748,0.47046 1.81159,0.94079 2.729,1.38806 a 273.58182,273.58182 0 0 0 -14.72608,69.30164 259.47434,259.47434 0 0 0 0.18824,41.89636 q -0.0354,-0.2472 -0.0706,-0.494 A 68.56539,68.56539 0 0 0 140.4068,457.67464 c -18.01256,-14.79666 -43.460918,-20.24566 -62.893298,-32.13921 -9.35418,-5.72534 -21.34088,1.67334 -19.70831,12.51831 q 0.03909,0.25964 0.07947,0.51941 a 75.33161,75.33161 0 0 1 8.44507,4.06945 q 2.34145,1.32129 4.5841,2.8042 c 8.52069,5.63538 5.57593,18.844 -4.52014,20.40247 l -0.22882,0.035 c -0.16461,0.0237 -0.30579,0.0473 -0.47022,0.0708 a 111.64546,111.64546 0 0 0 20.53632,32.15723 c 2.40912,74.33795 41.521728,64.7522 83.369198,36.58 h 0.0236 a 273.50284,273.50284 0 0 0 18.37238,53.63488 h 65.6319 c 0.23541,-0.72924 0.447,-1.48217 0.65887,-2.21142 a 74.57779,74.57779 0 0 1 -18.16077,-1.08179 c 4.86957,-5.97534 9.739,-11.99756 14.60846,-17.97265 a 4.08882,4.08882 0 0 0 0.30585,-0.35279 c 2.47,-3.0581 4.96356,-6.09277 7.43353,-9.15075 l 10e-4,-0.004 a 109.22845,109.22845 0 0 0 -3.20057,-27.82519 z"
     fill="#6c63ff"
     id="path7"
     style="fill:#b31312;fill-opacity:1" />
  <path
     d="m 185.33776,303.02762 c -6.36712,-15.3601 -18.30139,-28.29626 -28.81091,-41.57495 -12.62366,-15.94983 -38.50964,-8.989 -40.73364,11.22974 q -0.0323,0.2937 -0.063,0.58716 2.34154,1.32091 4.5841,2.8042 c 8.52076,5.63525 5.576,18.84387 -4.52014,20.40234 l -0.22857,0.0352 a 111.55107,111.55107 0 0 0 2.94042,16.67871 101.22388,101.22388 0 0 0 -3.18957,19.177 c 23.61633,1.70032 50.32751,2.5553 77.05841,2.56482 -0.86663,-11.75647 -3.48082,-23.33289 -7.0371,-31.90418 z"
     fill="#e6e6e6"
     id="path8" />
  <path
     d="m 254.05102,283.56205 a 54.06007,54.06007 0 0 0 4.91656,-14.77307 c -1.43487,0.18823 -5.41058,-21.6659 -4.3283,-23.00659 -1.99976,-3.03455 -5.57892,-4.543 -7.763,-7.504 -10.862,-14.72669 -25.82709,-12.15528 -33.63947,7.85693 -16.68915,8.4231 -16.85065,22.39209 -6.61029,35.82715 6.51495,8.54736 7.41009,20.113 13.12653,29.26367 -0.5882,0.75293 -1.19983,1.48218 -1.78791,2.23511 a 263.6194,263.6194 0 0 0 -16.886,24.42883 q 3.30633,-0.0269 6.60223,-0.0714 a 259.31316,259.31316 0 0 1 16.894,-23.67529 70.8715,70.8715 0 0 0 29.47565,-30.58133 z"
     fill="#e6e6e6"
     id="path9" />
  <path
     d="m 344.15232,58.51583 v 254.54 c 0,29.35 -314.999998,29.35 -314.999998,0 v -254.54 a 53.29173,53.29173 0 0 1 53.23,-53.23 h 27.269998 v 9.42 a 16.08091,16.08091 0 0 0 16.08,16.08 c 33.80536,10.61731 75.53937,8.86946 121.84,0 a 16.08092,16.08092 0 0 0 16.08,-16.08 v -9.42 h 27.27 a 53.29174,53.29174 0 0 1 53.23,53.23 z"
     opacity="0.1"
     id="path10" />
  <path
     d="m 216.60504,86.02199 h -9 a 13.01442,13.01442 0 0 0 -13,13 v 10 h -16 a 13.01442,13.01442 0 0 0 -13,13 v 20 a 13.01442,13.01442 0 0 0 13,13 h 20 a 13.01443,13.01443 0 0 0 13,-13 v -20 a 13.01443,13.01443 0 0 0 -13,-13 h -2 v -10 a 11.01245,11.01245 0 0 1 11,-11 h 9 a 11.01245,11.01245 0 0 1 11,11 v 11 h 2 v -11 a 13.01443,13.01443 0 0 0 -13,-13 z m -7,36 v 20 a 11.01245,11.01245 0 0 1 -11,11 h -20 a 11.01245,11.01245 0 0 1 -11,-11 v -20 a 11.01245,11.01245 0 0 1 11,-11 c 9.46936,5.50931 14.6864,2.65979 20,0 a 11.01245,11.01245 0 0 1 11,11 z"
     fill="#ffffff"
     id="path11" />
  <path
     d="m 188.60504,141.02199 a 9,9 0 1 0 -9,-9 9.01047,9.01047 0 0 0 9,9 z m 0,-11 c 3.85986,0 7,-1.85986 7,2 a 7,7 0 1 1 -14,0 c 0,-3.85984 3.14013,-2 7,-2 z"
     fill="#ffffff"
     id="path12" />
  <circle
     cx="188.60504"
     cy="132.022"
     r="3"
     fill="#ffffff"
     id="circle12" />
  <rect
     x="347.60504"
     y="144.022"
     width="7.2100201"
     height="2"
     fill="#ffffff"
     id="rect12" />
  <path
     d="m 29.605042,308.0745 v 5 c 0,29.35 315.000058,29.35 315.000058,0 v -5 c 0,29.35004 -315.000058,29.35004 -315.000058,0 z"
     opacity="0.1"
     id="path13" />
  <path
     d="m 307.83244,379.61782 a 7.66482,7.66482 0 0 0 6.019,-8.83539 7.35338,7.35338 0 0 0 -0.32684,-1.17085 l 20.48877,-17.18278 -5.061,-13.46408 -25.52221,26.57279 a 7.64356,7.64356 0 0 0 -4.32567,8.2685 7.31488,7.31488 0 0 0 8.53095,5.8513 v 0 q 0.0988,-0.0184 0.197,-0.0395 z"
     fill="#a0616a"
     id="path14" />
  <path
     d="m 317.47987,278.22829 -8.125,6.47911 c 0,0 -9.70985,17.6533 -2.74979,21.31461 6.96006,3.66131 28.59761,15.8377 28.59761,15.8377 0,0 -8.94252,8.90234 -9.99734,13.22609 -1.05482,4.32375 1.2801,8.16554 -2.42595,7.26141 -3.70605,-0.90413 -3.81138,2.04 -4.71552,5.74613 -0.90414,3.70613 -6.9308,7.11915 -6.9308,7.11915 l 11.51961,8.4995 c 0,0 5.33213,1.883 5.76928,-2.59141 0.43715,-4.47441 -0.77732,-3.8432 2.92873,-2.93907 3.70605,0.90413 6.82893,-4.89531 8.80281,-10.3037 1.97388,-5.40839 22.11381,-30.58224 22.11381,-30.58224 l -21.07131,-23.44831 a 55.99761,55.99761 0 0 0 -23.71613,-15.619 z"
     fill="#6c63ff"
     id="path15"
     style="fill:#b31312;fill-opacity:1" />
  <polygon
     points="297.094,612.596 296.815,645.673 288.426,645.602 284.713,612.491 "
     fill="#a0616a"
     id="polygon15"
     transform="translate(18.813652)" />
  <path
     d="m 288.7587,659.01224 a 3.75542,3.75542 0 0 0 3.71838,3.78334 l 16.67866,0.13917 2.91983,-5.91847 1.07238,5.94865 6.29322,0.0571 -1.58913,-21.21673 -2.18949,-0.14567 -8.93065,-0.61562 -2.88122,-0.19294 -0.0505,6.003 -13.398,9.08746 a 3.74906,3.74906 0 0 0 -1.64343,3.07073 z"
     fill="#2f2e41"
     id="path16" />
  <polygon
     points="220.078,612.596 219.799,645.673 211.411,645.602 207.697,612.491 "
     fill="#a0616a"
     id="polygon16"
     transform="translate(18.813652)" />
  <path
     d="m 211.74319,659.01224 a 3.75543,3.75543 0 0 0 3.71838,3.78334 l 16.67867,0.13917 2.91983,-5.91847 1.07238,5.94865 6.29321,0.0571 -1.58912,-21.21673 -2.1895,-0.14567 -8.93065,-0.61562 -2.88121,-0.19294 -0.0506,6.003 -13.398,9.08746 a 3.74909,3.74909 0 0 0 -1.64343,3.07073 z"
     fill="#2f2e41"
     id="path17" />
  <path
     d="m 260.31594,365.28708 c 0,0 -16.10772,7.93487 -11.90849,12.7113 4.19923,4.77643 0.74772,7.47723 -4.48634,11.96357 -5.23406,4.48634 -15.77119,57.03982 -15.77119,57.03982 l -13.64408,81.40908 c 0,0 3.62009,71.08438 6.04955,73.616 2.42946,2.53162 6.16808,-1.207 2.42946,2.53166 -3.73862,3.73866 -6.72951,0.74772 -3.73861,3.73862 2.9909,2.9909 3.73861,11.21585 3.73861,11.21585 l 19.376,-1.6329 c 0,0 12.61222,-54.6393 4.09532,-78.84383 l 33.412,-88.54468 10.10128,85.43659 c 0,0 5.54452,69.37807 9.28314,71.62124 3.73862,2.24317 6.43216,2.39441 3.21608,5.30968 -3.21608,2.91527 -3.21608,-1.57106 -3.21608,2.91528 v 7.44128 l 18.087,2.48262 c 0,0 8.40124,-66.51072 4.50366,-97.28745 l 11.80466,-103.30582 -9.19568,-46.55314 -9.4974,-12.517 z"
     fill="#2f2e41"
     id="path18"
     style="fill:#2b2a4c;fill-opacity:1" />
  <path
     d="m 182.58724,340.10799 a 7.66484,7.66484 0 0 0 10.58468,-1.50252 7.35381,7.35381 0 0 0 0.64523,-1.03023 l 26.50085,3.56975 6.54257,-12.80976 -36.83156,-0.9652 a 7.64359,7.64359 0 0 0 -9.02508,2.37228 7.31487,7.31487 0 0 0 1.42144,10.24667 v 0 q 0.0801,0.0606 0.16187,0.11901 z"
     fill="#a0616a"
     id="path19" />
  <path
     d="m 264.02444,278.94511 -10.26166,-1.6412 c 0,0 -12.31635,6.72441 -10.33438,14.33488 1.98197,7.61047 0.28484,29.79459 0.28484,29.79459 0,0 -12.60334,-0.61319 -16.50961,1.51954 -3.90627,2.13273 -5.17306,6.44625 -7.0011,3.098 -1.82804,-3.34825 0.0994,-5.125 -3.24879,-3.2969 -3.34824,1.8281 -14.10485,3.35461 -14.10485,3.35461 l -4.32416,14.7238 c 0,0 6.00781,8.26149 9.60939,5.57074 3.60158,-2.69075 4.31037,-6.69963 6.13841,-3.35141 1.82804,3.34822 2.33794,9.58924 7.66495,7.40521 5.32701,-2.18403 43.37929,-12.0939 43.37929,-12.0939 l 4.59907,-45.97384 z"
     fill="#6c63ff"
     id="path20"
     style="fill:#b31312;fill-opacity:1" />
  <path
     d="m 254.00952,376.63834 c 0,0 -7.24515,-11.56321 -5.86576,-13.25884 1.37939,-1.69563 3.107,1.23541 0,-1.72555 -3.107,-2.96096 14.31692,-22.7215 15.46124,-25.63194 1.14432,-2.91044 -17.44068,-53.73222 -17.44068,-53.73222 l 15.82877,-9.53341 13.378,-18.82142 23.9257,3.82759 8.41812,17.06417 11.89013,4.19527 1,1 v 31 c 0,0 5.29174,26.46053 -6.3509,35.5703 0,0 5.555,12.10068 4.05955,14.34385 -1.49545,2.24317 25.393,31.7186 4.29135,35.08585 -23.11414,3.68843 -72.41724,-20.691 -68.59552,-19.38365 z"
     fill="#6c63ff"
     id="path21"
     style="fill:#b31312;fill-opacity:1" />
  <path
     d="m 135.33694,663.27399 a 1.18647,1.18647 0 0 0 1.19007,1.19 h 253.29 a 1.19,1.19 0 1 0 0,-2.38 h -253.29 a 1.1865,1.1865 0 0 0 -1.19007,1.19 z"
     fill="#cccccc"
     id="path22" />
  <circle
     cx="290.85843"
     cy="234.28323"
     r="24.36323"
     fill="#a0616a"
     id="circle22" />
  <path
     d="m 309.68432,216.27161 c -0.25072,-2.19259 -1.75349,-4.90251 -2.79881,-6.84612 -1.04532,-1.94361 -3.06386,-3.53086 -5.26657,-3.39541 a 5.61774,5.61774 0 0 0 -4.30378,2.92477 11.78117,11.78117 0 0 0 -1.33878,5.20131 27.24121,27.24121 0 0 0 8.858,21.6906 c 1.70752,1.53143 3.76246,2.89432 6.05554,2.94619 a 7.81088,7.81088 0 0 0 5.53181,-2.48805 c 3.71167,-3.71719 4.2729,-9.82825 2.29062,-14.69288 -1.98228,-4.86463 -2.86687,-6.75757 -7.3982,-9.41485"
     fill="#2f2e41"
     id="path23" />
  <path
     d="m 275.45897,251.31181 c 0.40744,2.16759 -3.341,12.476 -2.14317,14.33387 0,0 12.40376,4.30822 17.14642,4.61788 5.79385,0.37481 10.45385,-2.00208 15.87288,-5.57945 a 12.16611,12.16611 0 0 1 1.63794,-5.50865 7.3713,7.3713 0 0 0 0.766,3.76479 c 20.29577,-5.04187 15.32715,-23.25519 3.069,-31.78808 l -8.14889,-18.74245 c 2.44467,0.81489 -4.93507,-11.77582 -12.71724,-2.65722 -9.73793,-9.91723 -28.60243,4.35955 -30.96593,17.11268 2.27437,-2.87857 3.4589,-2.53917 4.04222,-0.55407 a 11.22523,11.22523 0 0 1 3.09638,-4.32712 9.38217,9.38217 0 0 0 -1.01046,4.327 c 15.36063,0.95341 12.50169,11.31619 -0.0885,26.83986 4.65576,-2.89827 1.514,9.591 4,12.57626 0.12213,-2.08612 5.00331,-12.38623 5.44334,-14.4153 z"
     fill="#2f2e41"
     id="path24" />
  <path
     d="m 297.62587,231.35276 a 0.815,0.815 0 0 0 0.22243,-1.59875 9.87188,9.87188 0 0 1 -0.0557,-3.03514 c 0.265,-4.50138 0.70865,-12.03512 -6.60545,-17.12061 a 0.8147,0.8147 0 0 0 -0.93028,1.33772 c 6.56367,4.56425 6.16976,11.258 5.90874,15.687 -0.14881,2.5322 -0.25664,4.36133 1.27923,4.70948 a 0.80939,0.80939 0 0 0 0.18104,0.0203 z"
     fill="#6c63ff"
     id="path25" />
  <path
     d="m 297.24608,213.54254 a 45.96173,45.96173 0 0 1 15.65114,-3.46855 c 4.26733,-0.18084 9.35859,0.7707 11.09332,4.67371 1.05238,2.36778 0.49173,5.14315 -0.47093,7.54881 -0.96266,2.40566 -5.46163,7.262 -2.87106,7.209 6.50672,-0.133 9.28418,5.68533 5.98346,14.72653 -1.9143,5.24353 9.96372,5.04178 15.50145,5.7436 -4.16056,1.54366 -8.38488,3.102 -12.8071,3.47222 -4.42222,0.37022 -9.145,-0.59106 -12.44682,-3.55608 -3.573,-3.2086 -4.946,-8.19208 -5.55375,-12.95573 -0.60775,-4.76365 -0.63921,-9.6697 -2.254,-14.19234 -1.61479,-4.52264 -5.324,-8.73453 -10.10946,-9.13562"
     fill="#2f2e41"
     id="path26" />
</svg>
