<?xml version="1.0" encoding="UTF-8" standalone="no"?>
<svg
   data-name="Layer 1"
   width="680.62451"
   height="300"
   viewBox="0 0 680.62453 725.34332"
   version="1.1"
   id="svg75"
   sodipodi:docname="undraw_santa_visit_re_oiwr.svg"
   xmlns:inkscape="http://www.inkscape.org/namespaces/inkscape"
   xmlns:sodipodi="http://sodipodi.sourceforge.net/DTD/sodipodi-0.dtd"
   xmlns="http://www.w3.org/2000/svg"
   xmlns:svg="http://www.w3.org/2000/svg">
  <defs
     id="defs75" />
  <sodipodi:namedview
     id="namedview75"
     pagecolor="#ffffff"
     bordercolor="#666666"
     borderopacity="1.0"
     inkscape:showpageshadow="2"
     inkscape:pageopacity="0.0"
     inkscape:pagecheckerboard="0"
     inkscape:deskcolor="#d1d1d1" />
  <path
     d="m 183.38147,484.34808 -5.56,43.24738 c -46.77638,-9.32236 -91.35134,0.4577 -100.67369,47.23408 l -22.5564,-4.49541 a 109.62373,109.62373 0 0 1 128.79009,-85.98605 z"
     fill="#b31312"
     id="path1" />
  <path
     d="m 361.1116,311.93459 c 20.52331,13.28043 48.67168,13.65906 69.54474,0.9354 q 1.25394,-6.00547 2.508,-12.011 c 4.92079,5.11107 14.5972,4.14646 18.4121,-1.83557 a 312.83236,312.83236 0 0 0 -85.7095,-109.76433 c 10.53023,6.551 25.73537,4.08644 33.65707,-5.45544 a 132.67741,132.67741 0 0 0 33.50154,-16.91719 C 397.67142,110.08433 330.25627,64.95866 314.23227,0 c -48.207,51.76866 -53.61849,70.00109 -101.82553,121.76975 0,0 -45.64648,41.18945 -55.49893,63.32537 2.42081,2.54287 24.09383,8.6451 24.92705,13.64482 a 57.88821,57.88821 0 0 0 45.16308,-16.79144 c -30.98547,32.93069 -62.49994,66.63185 -81.47565,107.674 -1.70876,3.69591 -3.33167,7.91608 -1.90017,11.72792 1.1429,3.04331 5.24287,4.798 7.88349,3.58882 a 33.80549,33.80549 0 0 0 -7.45722,10.67818 c 10.7905,7.29341 26.70358,5.69069 35.82306,-3.60788 q -3.96454,7.40689 -7.9291,14.81371 a 72.97336,72.97336 0 0 0 55.8201,-2.41422 c -20.9363,13.13448 -73.28661,58.67122 -84.69028,80.59844 -5.166,9.93339 47.8775,21.90741 59.80833,21.41638 11.93075,-0.491 23.08275,-5.73342 33.85837,-10.87845 a 25.04928,25.04928 0 0 0 2.70121,14.25284 45.57949,45.57949 0 0 0 34.90859,-5.64358 c -0.643,13.28839 22.25967,18.54783 27.47848,6.31022 -1.958,7.194 7.56182,11.6481 14.90278,12.95127 20.9462,3.71819 46.223,5.97881 59.8528,-10.35507 15.68724,15.81807 44.43462,15.5178 60.03118,-0.245 -1.535,2.71947 0.8144,7.2959 4.28977,8.017 4.0957,0.84971 8.08028,-1.58389 11.55758,-3.90864 q 23.61257,-15.78628 47.22521,-31.57257 -69.28735,-46.70861 -138.57487,-93.41728 z"
     fill="#f1f2f2"
     id="path2" />
  <rect
     x="287.20816"
     y="403.57974"
     width="20.874809"
     height="172.21722"
     fill="#f1f2f2"
     id="rect2" />
  <path
     d="m 327.76849,336.70331 a 29.13792,29.13792 0 0 1 -2.55848,5.88236 28.6439,28.6439 0 0 1 -7.62849,8.63192 29.79974,29.79974 0 0 1 -3.27558,2.12708 28.90859,28.90859 0 0 1 -16.45035,3.63 25.78751,25.78751 0 0 1 -3.06665,-0.42557 26.918,26.918 0 0 1 -3.22966,-0.79533 28.914,28.914 0 0 1 -9.53135,-5.04351 26.7213,26.7213 0 0 1 -2.31766,-2.06778 29.03377,29.03377 0 0 1 -8.53231,-19.62161 27.367,27.367 0 0 1 0.0769,-3.17457 c 0.0631,-0.81277 0.16255,-1.62477 0.29992,-2.44073 a 29.5074,29.5074 0 0 1 0.91144,-3.85853 28.954,28.954 0 0 1 3.699,-7.707 c 0.32176,-0.48147 0.66443,-0.946 1.01664,-1.40757 9.76639,-12.65824 24.97709,-1.855 40.60341,-5.23614 14.71184,-3.1833 14.853,4.15783 9.99187,14.42911 v 0 a 28.81342,28.81342 0 0 1 -0.009,17.07787 z"
     fill="#ffffff"
     id="path3" />
  <path
     d="m 277.18427,310.47509 -6.00381,18.58843 a 27.36912,27.36912 0 0 1 0.0768,-3.17457 c 0.0631,-0.81278 0.16256,-1.62477 0.29993,-2.44074 l 4.62474,-11.56111 c 0.33096,-0.49433 0.6501,-0.95044 1.00229,-1.41201 z"
     opacity="0.1"
     style="isolation:isolate"
     id="path4" />
  <path
     d="m 311.56734,314.56186 -13.70631,42.4459 a 25.78765,25.78765 0 0 1 -3.06664,-0.42558 z"
     opacity="0.1"
     style="isolation:isolate"
     id="path5" />
  <path
     d="m 327.79995,319.58536 -0.0148,0.0478 -10.21107,31.60834 a 29.79974,29.79974 0 0 1 -3.27558,2.12708 l 13.46577,-33.75239 z"
     opacity="0.1"
     style="isolation:isolate"
     id="path6" />
  <path
     d="m 337.07184,398.18399 a 55.75218,55.75218 0 0 1 -24.1201,31.11994 c -1.5236,0.93137 -3.07872,1.79541 -4.6767,2.57813 a 55.78685,55.78685 0 0 1 -26.37749,5.73487 c -1.50181,-0.0355 -3.01635,-0.14827 -4.52126,-0.3261 a 56.24692,56.24692 0 0 1 -21.53942,-7.00605 c -1.30177,-0.73264 -2.56375,-1.52624 -3.78706,-2.36023 A 55.857,55.857 0 0 1 234.42227,408.4301 c -0.80319,-1.4473 -1.53311,-2.94519 -2.19095,-4.47313 -12.35211,-28.35854 29.21865,-61.35575 28.98222,-73.71314 -0.23643,-12.35739 61.361,0.62367 73.71313,28.98221 a 56.00707,56.00707 0 0 1 2.14517,38.95795 z"
     fill="#b31312"
     id="path7" />
  <path
     d="m 281.66675,349.44166 -25.85493,80.85637 c -1.30177,-0.73264 -2.56374,-1.52624 -3.78706,-2.36023 z"
     opacity="0.1"
     style="isolation:isolate"
     id="path8" />
  <path
     d="m 307.51568,357.44108 -25.64465,80.19383 c -1.50182,-0.0355 -3.01635,-0.14828 -4.52126,-0.3261 z"
     opacity="0.1"
     style="isolation:isolate"
     id="path9" />
  <path
     d="m 278.91135,396.67413 c 49.03814,17.62974 80.52038,46.82857 56.81839,110.12644 -17.12176,45.72491 -63.27612,72.96081 -109.09063,58.78261 -45.81451,-14.1782 -68.5262,-62.72551 -56.81838,-110.12644 18.17602,-73.58847 63.12181,-75.30891 109.09062,-58.78261 z"
     fill="#e6e6e6"
     id="path10" />
  <path
     d="m 317.80886,603.02086 a 97.74738,97.74738 0 0 1 -43.87775,55.51815 q -3.43242,2.04189 -7.04525,3.78719 a 98.26291,98.26291 0 0 1 -25.2154,8.27213 q -3.5493,0.66042 -7.171,1.0472 a 97.40307,97.40307 0 0 1 -21.543,-0.0765 q -3.45825,-0.395 -6.911,-1.04468 a 97.901,97.901 0 0 1 -11.03178,-2.74926 q -4.25642,-1.31723 -8.29239,-2.97456 c -2.14493,-0.88363 -4.24711,-1.83781 -6.30137,-2.84521 a 96.92714,96.92714 0 0 1 -17.616,-11.20971 q -2.74364,-2.16291 -5.30969,-4.52743 a 97.797,97.797 0 0 1 -15.70542,-18.60124 c -1.34133,-2.04826 -45.051,-19.20874 -46.22567,-21.35554 -12.88419,-23.32156 26.75575,-35.82727 34.66652,-61.26968 q 1.31723,-4.2564 2.976,-8.29717 c 29.6709,-106.89084 70.51944,-64.36417 119.81906,-56.45707 55.51181,8.90346 94.98646,20.57613 66.985,114.26731 q -0.88845,4.2582 -2.20086,8.51607 z"
     fill="#b31312"
     id="path11" />
  <path
     d="m 175.71805,521.51581 -33.91367,106.085 q -2.012,-3.07243 -3.77406,-6.29264 z"
     opacity="0.1"
     style="isolation:isolate"
     id="path12" />
  <path
     d="m 201.567,529.51528 -38.76446,121.23515 q -2.74214,-2.16774 -5.3082,-4.53225 z"
     opacity="0.1"
     style="isolation:isolate"
     id="path13" />
  <polygon
     points="180.42,661.955 186.717,664.799 227.419,537.505 "
     opacity="0.1"
     style="isolation:isolate"
     id="polygon13" />
  <polygon
     points="206.056,670.507 212.967,671.551 253.263,545.503 "
     opacity="0.1"
     style="isolation:isolate"
     id="polygon14" />
  <path
     d="m 279.10901,553.51219 -37.43083,117.078 q -3.5493,0.66042 -7.171,1.0472 z"
     opacity="0.1"
     style="isolation:isolate"
     id="path14" />
  <path
     d="m 304.95797,561.51166 -31.01912,97.01927 q -3.43241,2.04189 -7.04525,3.78719 z"
     opacity="0.1"
     style="isolation:isolate"
     id="path15" />
  <path
     d="m 317.59868,446.18939 a 51.50656,51.50656 0 1 1 2.30162,-13.88184 51.50653,51.50653 0 0 1 -2.30162,13.88184 z"
     fill="#ffab9e"
     id="path16" />
  <path
     d="m 238.42495,367.67666 100.067,30.96772 c 4.30648,1.33272 6.45656,6.74638 4.80233,12.09174 4.20777,8.99532 6.76151,18.02471 -8.48584,27.42055 -1.65422,5.34535 -6.48633,8.59825 -10.79281,7.26553 -26.81117,-29.07537 -59.15337,-42.302 -100.067,-30.96772 -4.30647,-1.33273 -6.45652,-6.7464 -4.8023,-12.09176 -5.06386,-16.71487 -3.39028,-26.9637 8.48582,-27.42058 1.65424,-5.34529 6.48632,-8.59817 10.7928,-7.26548 z"
     fill="#cccccc"
     id="path17" />
  <path
     d="m 307.99981,517.64989 c -4.82688,15.59727 -15.32325,19.10164 -28.44575,21.48444 q -2.13651,0.38309 -4.36049,0.7444 c -4.65245,0.77444 -9.56742,1.55142 -14.6309,2.77445 -1.74338,0.42366 -3.5063,0.89361 -5.28186,1.43818 a 68.24,68.24 0 0 0 -15.18575,6.66481 64.64321,64.64321 0 0 0 -7.94086,5.59863 l -0.008,0.008 c -1.2215,1.0039 -2.43391,2.063 -3.64757,3.21068 -32.57236,30.76036 -52.30007,-45.9703 -41.92336,-79.50082 a 63.553074,63.553074 0 0 1 121.42456,37.57724 z"
     fill="#eeeff0"
     id="path18" />
  <path
     d="m 318.17994,601.8218 a 98.22661,98.22661 0 0 1 -9.20352,20.85938 L 126.46695,566.20001 a 98.22724,98.22724 0 0 1 4.18756,-22.41166 q 1.31723,-4.25641 2.9775,-8.30195 l 186.785,57.80431 q -0.92319,4.26846 -2.23707,8.53109 z"
     opacity="0.1"
     style="isolation:isolate"
     id="path19" />
  <path
     d="m 317.43632,604.22466 a 98.30352,98.30352 0 0 1 -9.205,20.86416 L 125.72186,568.60766 a 98.30241,98.30241 0 0 1 4.189,-22.41644 q 1.31724,-4.25641 2.97751,-8.30195 l 186.785,57.80431 q -0.92315,4.26841 -2.23705,8.53108 z"
     opacity="0.1"
     style="isolation:isolate"
     id="path20" />
  <path
     d="m 317.80886,603.02086 a 98.26739,98.26739 0 0 1 -9.205,20.86416 L 126.0944,567.40385 a 98.2676,98.2676 0 0 1 4.189,-22.41644 q 1.31723,-4.25641 2.976,-8.29716 c 68.45768,8.14274 133.81611,21.85033 186.785,57.80432 q -0.92313,4.26837 -2.23554,8.52629 z"
     fill="#373e46"
     id="path21" />
  <circle
     cx="-489.03101"
     cy="383.71561"
     r="22.022791"
     transform="rotate(-72.80428)"
     opacity="0.1"
     style="isolation:isolate"
     id="circle21" />
  <circle
     cx="-489.03101"
     cy="383.71548"
     r="20.76265"
     transform="rotate(-72.80429)"
     fill="#eeeff0"
     id="circle22" />
  <circle
     cx="-489.03101"
     cy="383.71561"
     r="16.362101"
     transform="rotate(-72.80428)"
     fill="#373e46"
     id="circle23" />
  <path
     d="m 215.60827,460.73298 -22.848,70.768 a 63.613,63.613 0 0 1 -3.08329,-5.80145 z"
     opacity="0.1"
     style="isolation:isolate"
     id="path23" />
  <path
     d="m 231.83614,465.755 -26.19067,81.12938 a 58.40235,58.40235 0 0 1 -4.474,-4.28454 z"
     opacity="0.1"
     style="isolation:isolate"
     id="path24" />
  <path
     d="m 248.06877,470.77852 -27.66165,85.66272 a 60.27687,60.27687 0 0 1 -5.40285,-2.83933 z"
     opacity="0.1"
     style="isolation:isolate"
     id="path25" />
  <path
     d="m 264.2966,475.80054 -24.20154,74.95563 a 64.64321,64.64321 0 0 0 -7.94086,5.59863 z"
     opacity="0.1"
     style="isolation:isolate"
     id="path26" />
  <path
     d="m 280.52927,480.82405 -19.9666,61.82913 c -1.74338,0.42366 -3.5063,0.89361 -5.28186,1.43818 z"
     opacity="0.1"
     style="isolation:isolate"
     id="path27" />
  <path
     d="m 296.75707,485.84607 -17.203,53.28826 q -2.13651,0.38309 -4.36049,0.7444 z"
     opacity="0.1"
     style="isolation:isolate"
     id="path28" />
  <polygon
     points="264.249,400.784 265.429,401.149 272.712,378.377 "
     opacity="0.1"
     style="isolation:isolate"
     id="polygon28" />
  <polygon
     points="290.093,408.782 298.556,386.375 291.273,409.147 "
     opacity="0.1"
     style="isolation:isolate"
     id="polygon29" />
  <circle
     cx="264.11606"
     cy="444.78714"
     r="19.52573"
     fill="#ffab9e"
     id="circle29" />
  <path
     d="m 174.89934,423.11338 a 50.73367,50.73367 0 0 0 52.75659,0.7096 q 0.95124,-4.55576 1.90253,-9.11151 c 3.73291,3.87725 11.07343,3.1455 13.96741,-1.39246 A 237.31449,237.31449 0 0 0 178.5067,330.05186 c 7.98822,4.9696 19.52283,3.1 25.53223,-4.13849 A 100.64911,100.64911 0 0 0 229.45317,313.08 c -26.81958,-43.09009 -77.96069,-77.3224 -90.11645,-126.6 -36.56977,39.27167 -40.675,53.10279 -77.24478,92.37445 0,0 -34.62739,31.24629 -42.10145,48.03859 1.83643,1.929 18.27757,6.55816 18.90965,10.351 a 43.914,43.914 0 0 0 34.26068,-12.738 c -23.50556,24.9812 -47.41242,50.54688 -61.80738,81.6814 -1.29626,2.80371 -2.5274,6.00512 -1.44146,8.89679 0.867,2.30865 3.97723,3.63977 5.9804,2.72247 a 25.64512,25.64512 0 0 0 -5.657,8.10046 22.0286,22.0286 0 0 0 27.17535,-2.73693 q -3.0075,5.61886 -6.015,11.23767 a 55.35757,55.35757 0 0 0 42.34509,-1.83142 c -15.88226,9.9638 -55.59517,44.50794 -64.246,61.14191 -3.91895,7.53546 36.31984,16.619 45.37056,16.24645 9.05065,-0.37249 17.51055,-4.34936 25.68493,-8.25238 a 19.00233,19.00233 0 0 0 2.04914,10.8122 34.57662,34.57662 0 0 0 26.48162,-4.28119 c -0.48779,10.08056 16.88617,14.07037 20.84516,4.78692 -1.48535,5.4574 5.73639,8.83625 11.30523,9.82483 15.88977,2.82062 35.06476,4.53553 45.4043,-7.85534 11.90033,11.99957 33.70807,11.77179 45.53961,-0.18586 -1.16443,2.063 0.6178,5.53467 3.25421,6.08167 3.107,0.64459 6.1297,-1.20154 8.76758,-2.96509 q 17.91247,-11.97546 35.825,-23.95093 -52.56136,-35.43313 -105.12282,-70.86629 z"
     fill="#3f3d56"
     id="path29" />
  <rect
     x="118.83624"
     y="492.63531"
     width="15.83562"
     height="130.64386"
     fill="#3f3d56"
     id="rect29" />
  <path
     d="m 613.27807,515.48327 c -52.39,123.35 -174.65,209.86005 -317.12,209.86005 -115.4,0 -217.55,-56.76 -280.04,-143.9 12.68,-3.59 25.47,-5.21 38.6,-2.65 31.49,6.15 54.46,35.11 85.67,42.56 26.98005,6.44 55.12,-4.42 78.99,-18.54 23.88,-14.13 45.98005,-31.86 72.08,-41.27 17.31,-6.24 42.6,-4.51 46.84,13.4 1.93,8.17 -0.58,19.17 6.82,23.15 q 87.97494,-31.725 175.94995,-63.46 c 19.01,-6.85 38.09,-13.73 57.86,-17.94 11.24006,-2.39004 23.37007,-3.76003 34.35005,-1.21005 z"
     fill="#e6e7e8"
     id="path30" />
  <path
     d="m 585.22427,311.88121 c 18.11285,11.72064 42.95519,12.05481 61.37672,0.82554 q 1.10665,-5.30014 2.21338,-10.60028 c 4.34285,4.51078 12.88276,3.65946 16.24961,-1.62 a 276.09026,276.09026 0 0 0 -75.64293,-96.87252 c 9.29345,5.78161 22.71275,3.60649 29.70405,-4.81469 a 117.09468,117.09468 0 0 0 29.56679,-14.93028 c -31.20175,-50.13076 -90.699,-89.95643 -104.841,-147.28569 -42.54506,45.68843 -47.321,61.77947 -89.86613,107.4679 0,0 -40.28531,36.35176 -48.98059,55.88782 2.13649,2.2442 21.264,7.62973 21.99938,12.04223 a 51.08923,51.08923 0 0 0 39.85872,-14.81927 c -27.34622,29.063 -55.15933,58.806 -71.90634,95.02767 -1.50806,3.26182 -2.94037,6.98633 -1.677,10.35047 1.00867,2.68588 4.62709,4.23449 6.95757,3.16731 a 29.83531,29.83531 0 0 0 -6.58137,9.424 c 9.52316,6.4368 23.56725,5.02232 31.61565,-3.18414 q -3.49892,6.537 -6.99783,13.07384 a 64.40263,64.40263 0 0 0 49.264,-2.13066 c -18.47733,11.59183 -64.6791,51.78028 -74.74341,71.13215 -4.55928,8.76671 42.25429,19.33439 52.78385,18.901 10.52948,-0.43336 20.37168,-5.06 29.88171,-9.60078 a 22.10718,22.10718 0 0 0 2.384,12.57885 40.22621,40.22621 0 0 0 30.80857,-4.98071 c -0.5675,11.72767 19.64527,16.36939 24.25113,5.56908 -1.728,6.34911 6.67368,10.28 13.15245,11.43015 18.48607,3.28149 40.79414,5.2766 52.8231,-9.13886 13.84477,13.96023 39.21577,13.69523 52.98052,-0.21622 -1.35469,2.40007 0.71874,6.439 3.78593,7.07537 3.61466,0.74992 7.13126,-1.39786 10.20015,-3.44956 13.89285,-9.28813 -10.84043,-25.38564 3.05242,-34.67376 -40.76638,-27.48171 -42.90662,-48.15411 -83.6731,-75.63596 z"
     fill="#3f3d56"
     id="path31" />
  <rect
     x="520.00079"
     y="392.76266"
     width="18.423071"
     height="151.99033"
     fill="#3f3d56"
     id="rect31" />
  <circle
     cx="31.514"
     cy="212.67035"
     r="5.6470499"
     fill="#e6e7e8"
     id="circle31" />
  <circle
     cx="10.47105"
     cy="343.33685"
     r="5.6470499"
     fill="#e6e7e8"
     id="circle32" />
  <circle
     cx="22.346399"
     cy="438.02481"
     r="5.6470499"
     fill="#e6e7e8"
     id="circle33" />
  <circle
     cx="472.3801"
     cy="151.33722"
     r="5.6470499"
     fill="#e6e7e8"
     id="circle34" />
  <circle
     cx="91.769112"
     cy="370.44266"
     r="5.6470499"
     fill="#ffffff"
     id="circle35" />
  <circle
     cx="179.86305"
     cy="398.4097"
     r="5.6470499"
     fill="#ffffff"
     id="circle36" />
  <circle
     cx="501.79407"
     cy="287.99576"
     r="5.6470499"
     fill="#ffffff"
     id="circle37" />
  <circle
     cx="529.21234"
     cy="185.21951"
     r="5.6470499"
     fill="#e6e7e8"
     id="circle38" />
  <circle
     cx="427.20374"
     cy="282.34872"
     r="5.6470499"
     fill="#ffffff"
     id="circle39" />
  <circle
     cx="174.216"
     cy="326.39569"
     r="5.6470499"
     fill="#ffffff"
     id="circle40" />
  <circle
     cx="185.5101"
     cy="185.21951"
     r="5.6470499"
     fill="#e6e7e8"
     id="circle41" />
  <circle
     cx="326.41226"
     cy="192.15961"
     r="5.6470499"
     fill="#e6e7e8"
     id="circle42" />
  <circle
     cx="365.32224"
     cy="349.93692"
     r="5.6470499"
     fill="#ffffff"
     id="circle43" />
  <circle
     cx="424.15808"
     cy="336.14856"
     r="5.6470499"
     fill="#e6e7e8"
     id="circle44" />
  <circle
     cx="466.73306"
     cy="444.43359"
     r="5.6470499"
     fill="#ffffff"
     id="circle45" />
  <circle
     cx="438.49783"
     cy="474.40485"
     r="5.6470499"
     fill="#e6e7e8"
     id="circle46" />
  <circle
     cx="296.15808"
     cy="370.44266"
     r="5.6470499"
     fill="#ffffff"
     id="circle47" />
  <circle
     cx="529.21234"
     cy="355.15332"
     r="5.6470499"
     fill="#e6e7e8"
     id="circle48" />
  <circle
     cx="664.59552"
     cy="424.62848"
     r="16.02899"
     fill="#b31312"
     id="circle49" />
  <circle
     cx="565.82037"
     cy="435.92258"
     r="16.02899"
     fill="#ff6584"
     id="circle50" />
  <circle
     cx="389.21756"
     cy="404.05673"
     r="16.02899"
     fill="#b31312"
     id="circle51" />
  <circle
     cx="379.763"
     cy="299.28986"
     r="16.02899"
     fill="#b31312"
     id="circle52" />
  <circle
     cx="664.59552"
     cy="293.64282"
     r="16.02899"
     fill="#b31312"
     id="circle53" />
  <circle
     cx="648.69189"
     cy="183.869"
     r="16.02899"
     fill="#ff6584"
     id="circle54" />
  <circle
     cx="86.12207"
     cy="503.09286"
     r="5.6470499"
     fill="#ffffff"
     id="circle55" />
  <circle
     cx="161.26456"
     cy="508.46823"
     r="5.6470499"
     fill="#ffffff"
     id="circle56" />
  <circle
     cx="273.56989"
     cy="524.47272"
     r="5.6470499"
     fill="#ffffff"
     id="circle57" />
  <circle
     cx="249.88644"
     cy="251.85468"
     r="5.6470499"
     fill="#ffffff"
     id="circle58" />
  <circle
     cx="260.14911"
     cy="223.78307"
     r="5.6470499"
     fill="#e6e7e8"
     id="circle59" />
  <circle
     cx="124.52199"
     cy="293.64282"
     r="5.6470499"
     fill="#ffffff"
     id="circle60" />
  <g
     opacity="0.35"
     id="g60">
    <path
       d="m 880.42755,374.19362 c 9.6417,-4.20394 -9.91163,-6.65119 -32.09585,-7.45582 -22.18422,-0.80463 -49.02061,-0.76011 -63.19757,-3.04874 -13.71114,-2.21344 -12.7009,-6.14908 -13.85426,-9.7149 -1.15336,-3.56582 -6.42446,-7.222 -27.81929,-8.0147 -26.66069,-0.98774 -70.62581,2.81434 -90.75171,0.53173 -18.78121,-2.13011 -7.61723,-8.81182 -35.00343,-9.06754 -15.63838,-0.146 -35.78491,2.05681 -53.18577,2.58843 -16.33647,0.49909 -28.42217,-0.53441 -36.90357,-1.924 -8.4814,-1.38959 -14.38875,-3.15126 -23.93413,-4.37864 -25.06069,-3.2224 -74.09133,-2.13925 -117.853,1.99071 -43.76167,4.12996 -81.27344,10.89816 -102.42889,17.60175 -21.15545,6.70359 -27.0003,13.30376 -22.0724,18.90071 3.14674,3.574 11.19915,6.91585 30.73235,8.352 36.53555,2.68621 101.58388,-1.9375 139.33713,0.50646 21.04151,1.36212 30.37641,4.73923 48.83813,6.58715 19.83406,1.98528 48.86934,2.09051 77.39655,2.04341 59.39721,-0.0981 120.3137,-0.70829 182.42994,-1.82747 25.94486,-0.46745 53.13,-1.0752 80.73762,-3.30289 27.60762,-2.22769 55.76622,-6.52591 61.59075,-10.5553"
       transform="translate(-259.68773,-87.32834)"
       fill="#ffffff"
       id="path60" />
  </g>
  <circle
     cx="421.5567"
     cy="195.60146"
     r="16.02899"
     fill="#b31312"
     id="circle61" />
  <circle
     cx="271.80511"
     cy="340.39569"
     r="5.6470499"
     fill="#ffffff"
     id="circle62" />
  <circle
     cx="531.3623"
     cy="85.831467"
     r="5.6470499"
     fill="#ffffff"
     id="circle63" />
  <circle
     cx="284.86398"
     cy="416.6973"
     r="5.6470499"
     fill="#ffffff"
     id="circle64" />
  <circle
     cx="392.48199"
     cy="508.73993"
     r="5.6470499"
     fill="#ffffff"
     id="circle65" />
  <circle
     cx="438.49783"
     cy="589.79468"
     r="5.6470499"
     fill="#ffffff"
     id="circle66" />
  <circle
     cx="301.11694"
     cy="592.13751"
     r="5.6470499"
     fill="#ffffff"
     id="circle67" />
  <circle
     cx="143.39406"
     cy="640.90588"
     r="5.6470499"
     fill="#ffffff"
     id="circle68" />
  <circle
     cx="332.32224"
     cy="370.44266"
     r="5.6470499"
     fill="#ffffff"
     id="circle69" />
  <circle
     cx="257.22687"
     cy="244.4752"
     r="5.6470499"
     fill="#b31312"
     id="circle70" />
  <path
     d="m 313.56327,550.7614 -3,-43.5 c 47.69629,0 89.5,-18.30371 89.5,-66 h 23 a 109.62373,109.62373 0 0 1 -109.5,109.5 z"
     fill="#b31312"
     id="path70" />
  <path
     d="m 381.27483,429.13547 a 22.09476,22.09476 0 0 1 3.5087,-0.341 19.36991,19.36991 0 0 1 2.00822,-0.90045 z"
     fill="#b31312"
     id="path71" />
  <path
     d="m 521.69455,539.33577 a 59.85453,59.85453 0 0 0 -29.83887,-48.92478 c -20.28672,-11.43605 -45.5041,-9.97646 -66.93169,-19.09748 -4.17421,-1.7768 -8.35585,-4.10537 -10.81537,-7.91742 -3.16345,-4.90324 -2.863,-11.20239 -4.48616,-16.80729 -3.056,-10.552 -13.94938,-18.0741 -24.83893,-17.79438 a 20.78594,20.78594 0 0 0 -0.99913,36.667 c -11.047,-1.90994 -22.3626,4.56238 -28.629,13.85849 -6.26644,9.29616 -8.20363,20.88948 -8.23263,32.10044 a 109.65251,109.65251 0 0 0 39.60077,83.86821 c 7.29158,5.96813 15.58429,11.064 24.82071,12.9283 12.23714,2.46992 24.869,-0.92851 36.60552,-5.18312 a 248.59887,248.59887 0 0 0 52.66478,-26.54092 c 5.78485,-3.83859 11.5362,-8.04954 15.38229,-13.8293 4.50803,-6.77453 6.00559,-15.19637 5.69771,-23.32775 z"
     fill="#d1d3d4"
     id="path72" />
  <path
     d="m 383.04072,467.21809 c 2.73172,1.15988 5.68129,1.0565 8.58271,0.86014 2.90434,-0.19655 5.81441,-0.36339 8.71384,-0.62387 4.69357,-0.42167 9.54854,-1.32572 13.09641,-4.67672 1.40483,-1.32687 -0.60667,-3.55328 -2.012,-2.22593 -3.13983,2.96561 -7.583,3.63091 -11.7269,3.9689 -2.56726,0.2094 -5.13974,0.36466 -7.7094,0.54181 -2.72293,0.18771 -5.46854,0.387 -8.03843,-0.70418 -1.7761,-0.75412 -2.67077,2.11064 -0.90623,2.85985 z"
     fill="#3f3d56"
     id="path73" />
  <path
     d="m 413.01351,463.58929 c 0.85083,-1.935 0.80835,-4.51321 2.27114,-6.14069 a 2.58385,2.58385 0 0 1 2.01052,-0.78613 11.96484,11.96484 0 0 1 1.43362,0.10419 3.31375,3.31375 0 0 1 1.04512,0.16965 c 0.0388,0.0227 0.002,-0.0371 -0.009,-0.0535 -0.0187,-0.029 -0.0608,0.26889 -0.0811,0.31569 a 4.0628,4.0628 0 0 1 -0.68012,0.97853 9.60508,9.60508 0 0 1 -1.94336,1.7028 9.83513,9.83513 0 0 1 -4.99642,1.64178 1.51239,1.51239 0 0 0 -1.52142,1.24434 1.48455,1.48455 0 0 0 1.0115,1.68489 l 4.35743,0.97631 c 1.40846,0.31558 2.87173,0.54907 4.24708,0.99051 0.5,0.16049 1.78247,0.7359 1.3227,1.39876 -0.39175,0.56478 -1.64432,0.64715 -2.21433,0.66963 a 8.18625,8.18625 0 0 1 -8.15876,-5.938 c -0.46471,-1.87062 -3.394,-1.21978 -2.92679,0.66091 a 11.16606,11.16606 0 0 0 8.62223,8.06345 c 2.13293,0.40691 4.76821,0.35591 6.52649,-1.09476 a 3.36032,3.36032 0 0 0 1.12151,-3.48359 4.54338,4.54338 0 0 0 -2.66954,-2.861 23.54258,23.54258 0 0 0 -4.41968,-1.14367 l -4.90211,-1.09835 -0.50991,2.92922 a 12.99894,12.99894 0 0 0 5.86051,-1.59857 10.93758,10.93758 0 0 0 4.43269,-4.17672 3.48457,3.48457 0 0 0 0.21161,-3.17947 c -0.608,-1.2209 -1.93935,-1.568 -3.17654,-1.74121 -2.14029,-0.29958 -4.45986,-0.23741 -6.04515,1.45189 -1.961,2.08963 -1.98015,4.90556 -3.08,7.40691 a 1.50959,1.50959 0 0 0 0.97681,1.883 1.53444,1.53444 0 0 0 1.883,-0.97681 z"
     fill="#3f3d56"
     id="path74" />
  <circle
     cx="410.56323"
     cy="434.26141"
     r="17"
     fill="#ffab9e"
     id="circle74" />
  <path
     d="m 251.52241,472.1681 a 29.22132,29.22132 0 0 0 33.191,-6.2943 c 1.33459,-1.39531 -0.78362,-3.51987 -2.12132,-2.12132 a 26.14645,26.14645 0 0 1 -29.55552,5.82518 c -1.74506,-0.79072 -3.272,1.79391 -1.51416,2.59041 z"
     fill="#ffab9e"
     id="path75" />
  <circle
     cx="65.482079"
     cy="579.64227"
     r="17"
     fill="#ffab9e"
     id="circle75" />
</svg>
